<?xml version="1.0" standalone="no"?>
<svg xmlns:xlink="http://www.w3.org/1999/xlink" id="wave" style="transform:rotate(180deg); transition: 0.3s" viewBox="0 0 1440 260" version="1.1" xmlns="http://www.w3.org/2000/svg"><defs><linearGradient id="sw-gradient-0" x1="0" x2="0" y1="1" y2="0"><stop stop-color="rgba(211, 116, 53, 1)" offset="0%"/><stop stop-color="rgba(211, 116, 53, 1)" offset="100%"/></linearGradient></defs><path style="transform:translate(0, 0px); opacity:1" fill="url(#sw-gradient-0)" d="M0,104L48,112.7C96,121,192,139,288,138.7C384,139,480,121,576,121.3C672,121,768,139,864,156C960,173,1056,191,1152,173.3C1248,156,1344,104,1440,91C1536,78,1632,104,1728,95.3C1824,87,1920,43,2016,34.7C2112,26,2208,52,2304,73.7C2400,95,2496,113,2592,99.7C2688,87,2784,43,2880,47.7C2976,52,3072,104,3168,143C3264,182,3360,208,3456,195C3552,182,3648,130,3744,112.7C3840,95,3936,113,4032,99.7C4128,87,4224,43,4320,43.3C4416,43,4512,87,4608,86.7C4704,87,4800,43,4896,43.3C4992,43,5088,87,5184,104C5280,121,5376,113,5472,95.3C5568,78,5664,52,5760,43.3C5856,35,5952,43,6048,73.7C6144,104,6240,156,6336,156C6432,156,6528,104,6624,78C6720,52,6816,52,6864,52L6912,52L6912,260L6864,260C6816,260,6720,260,6624,260C6528,260,6432,260,6336,260C6240,260,6144,260,6048,260C5952,260,5856,260,5760,260C5664,260,5568,260,5472,260C5376,260,5280,260,5184,260C5088,260,4992,260,4896,260C4800,260,4704,260,4608,260C4512,260,4416,260,4320,260C4224,260,4128,260,4032,260C3936,260,3840,260,3744,260C3648,260,3552,260,3456,260C3360,260,3264,260,3168,260C3072,260,2976,260,2880,260C2784,260,2688,260,2592,260C2496,260,2400,260,2304,260C2208,260,2112,260,2016,260C1920,260,1824,260,1728,260C1632,260,1536,260,1440,260C1344,260,1248,260,1152,260C1056,260,960,260,864,260C768,260,672,260,576,260C480,260,384,260,288,260C192,260,96,260,48,260L0,260Z"/></svg>